# xmcd
#
# Track frame offsets: 
#        150
#        6264
#        17355
#        32688
#        40591
#        53891
#        58272
#        64113
#        72021
#        80252
#        87937
#        97503
#        103831
#        111692
#        118626
#        127092
#        142749
#        152873
#        158525
#        163256
#        169826
#        176694
#        181491
#        185550
#        196566
#
# Disc length: 2752 seconds
#
# Revision: 0
# Processed by: cddbd v1.5.2PL0 Copyright (c) Steve Scherf et al.
# Submitted via: ExactAudioCopy v1.0b4
#
DISCID=470abe19
DTITLE=Various Artist - おやこのあそびうたベスト５０
DYEAR=2009
DGENRE=Other
TTITLE0=おとなこうえん
TTITLE1=５つのメロンパン
TTITLE2=ちからあわせて
TTITLE3=きのぼりコアラ
TTITLE4=ぱわわぷたいそう
TTITLE5=もしもね
TTITLE6=はるですよ！はるですよ！
TTITLE7=ひつじかいのダンス
TTITLE8=ちがでた
TTITLE9=ふたりでできること！
TTITLE10=クラゲがふってきた
TTITLE11=ゆらゆら
TTITLE12=ちいさなにわ
TTITLE13=やさいのうた
TTITLE14=ワニのかぞく
TTITLE15=アブラハムの子
TTITLE16=すいかのめいさんち
TTITLE17=やきいもグーチーパー
TTITLE18=おはぎのよめいり
TTITLE19=ずいずいずっころばし
TTITLE20=おてらのおしょうさん　（平成版）
TTITLE21=うちのうらのクロネコさん
TTITLE22=ＵＦＯだ！
TTITLE23=ちいさなパンと（ねこ）
TTITLE24=たかいたかいをして
EXTD=
EXTT0=
EXTT1=
EXTT2=
EXTT3=
EXTT4=
EXTT5=
EXTT6=
EXTT7=
EXTT8=
EXTT9=
EXTT10=
EXTT11=
EXTT12=
EXTT13=
EXTT14=
EXTT15=
EXTT16=
EXTT17=
EXTT18=
EXTT19=
EXTT20=
EXTT21=
EXTT22=
EXTT23=
EXTT24=
PLAYORDER=
